<?xml version="1.0" encoding="UTF-8"?>
<svg id="Genel" xmlns="http://www.w3.org/2000/svg" viewBox="0 0 537.69 104.13" class="home-logo">
        <defs><style>.ht-cls { fill: #00FFC3; }</style></defs>
        <g>
          <path class="ht-cls" d="M78.13,79.47v-45.92h-17.15v-6.14h41.27v6.14h-17.22v45.92h-6.89Z"/>
          <path class="ht-cls" d="M128.51,79.47V27.41h37.65v6.14h-30.75v15.95h28.8v6.11h-28.8v17.72h31.96v6.14h-38.85Z"/>
          <path class="ht-cls" d="M195.65,79.47V27.41h23.08c4.64,0,8.17.47,10.58,1.4,2.42.94,4.34,2.59,5.79,4.95,1.44,2.37,2.17,4.98,2.17,7.85,0,3.69-1.2,6.81-3.59,9.34-2.39,2.53-6.08,4.14-11.08,4.83,1.82.88,3.21,1.74,4.16,2.59,2.01,1.85,3.92,4.16,5.72,6.93l9.06,14.17h-8.67l-6.89-10.83c-2.01-3.12-3.67-5.52-4.97-7.17-1.3-1.66-2.47-2.82-3.5-3.48-1.03-.66-2.08-1.12-3.14-1.39-.78-.17-2.06-.25-3.83-.25h-7.99v23.12h-6.89ZM202.54,50.38h14.81c3.15,0,5.61-.33,7.39-.98,1.78-.65,3.12-1.69,4.05-3.13.92-1.43,1.39-2.99,1.39-4.67,0-2.46-.89-4.49-2.68-6.07-1.79-1.59-4.61-2.38-8.47-2.38h-16.48v17.22Z"/>
          <path class="ht-cls" d="M264.13,79.74l19.99-51.84h7.42l21.31,51.84h-7.85l-6.07-15.7h-21.77l-5.72,15.7h-7.32ZM277.16,64.04h17.65l-5.43-14.36c-1.66-4.36-2.89-7.94-3.69-10.75-.66,3.32-1.6,6.62-2.81,9.9l-5.72,15.2Z"/>
          <path class="ht-cls" d="M342.96,79.47V27.41h37.65v6.14h-30.75v15.95h28.8v6.11h-28.8v17.72h31.96v6.14h-38.85Z"/>
          <path class="ht-cls" d="M407.43,54.11c0-8.64,2.32-15.41,6.96-20.3s10.63-7.33,17.97-7.33c4.81,0,9.14,1.15,13,3.44,3.86,2.3,6.8,5.5,8.83,9.61,2.02,4.11,3.04,8.77,3.04,13.98s-1.07,10-3.2,14.17c-2.13,4.17-5.15,7.32-9.06,9.46-3.91,2.14-8.12,3.21-12.64,3.21-4.9,0-9.28-1.18-13.14-3.55-3.86-2.37-6.78-5.6-8.77-9.7-1.99-4.1-2.98-8.43-2.98-13ZM414.54,54.22c0,6.27,1.69,11.22,5.06,14.83,3.37,3.61,7.61,5.42,12.7,5.42s9.45-1.82,12.8-5.47c3.35-3.65,5.03-8.82,5.03-15.52,0-4.24-.72-7.94-2.15-11.1-1.43-3.16-3.53-5.61-6.29-7.35-2.76-1.74-5.85-2.61-9.29-2.61-4.88,0-9.07,1.68-12.59,5.02-3.52,3.35-5.27,8.94-5.27,16.78Z"/>
          <g>
            <polygon class="ht-cls" points="40.66 55.39 40.66 49.28 29.51 49.28 25.56 55.39 40.66 55.39"/>
            <polygon class="ht-cls" points="43.8 33.33 43.8 27.2 39.83 33.33 43.8 33.33"/>
            <polygon class="ht-cls" points="44.09 79.25 44.09 73.11 14.13 73.11 10.12 79.25 44.09 79.25"/>
            <polygon class="ht-cls" points="11.85 55.39 23.16 55.39 27.12 49.28 11.85 49.28 11.85 33.33 37.44 33.33 41.41 27.19 4.96 27.19 4.96 79.25 7.71 79.25 11.85 72.86 11.85 55.39"/>
          </g>
          <g>
            <polygon class="ht-cls" points="490.98 26.85 483.67 26.85 483.67 79.3 490.33 79.3 490.33 38.08 517.88 79.3 524.19 79.3 518.34 70.06 490.98 26.85"/>
            <polygon class="ht-cls" points="525 26.85 518.34 26.85 518.34 66.3 525 76.82 525 26.85"/>
          </g>
        </g>
      </svg>